<svg height="24" viewBox="0 0 24 24" width="24" xmlns="http://www.w3.org/2000/svg"><g fill="none" fill-rule="evenodd"><path d="m0 0h24v24h-24z" fill-rule="nonzero"/><path d="m6.85728 2.44483c1.26314571.92138357 2.21854398 2.21631143 3.03203623 3.4041684l.63728377.9382416c.4058.59307.3388 1.3976-.1764 1.91282l-1.35642 1.35634.14357723.3034745c.34974033.7090188.95339677 1.7309055 1.86264277 2.6401255.6994.6994 1.4654667 1.218 2.1044815 1.5792963l.3666129.1980893.326822.1614642c.0506378.0239213.0992303.0463635.1455836.0673502l1.3558-1.3557c.5156-.5157 1.3236-.5837 1.918-.1718l1.014055.7029565c1.1515977.8101944 2.3542604 1.7336204 3.289645 2.9315435.3416.4374.3923 1.0095.1886 1.4849-.8368 1.9525-2.9544 3.6154-5.1572 3.5343l-.3005241-.0166999-.2329503-.0200936-.257792-.0288821-.2815715-.0390593-.304289-.0506251-.3259444-.0635797-.3465378-.0779231-.3660689-.0936551-.3845381-.1107758-.4019451-.1292853c-1.8463257-.6255132-4.18912942-1.8554335-6.5928888-4.259221-2.40378187-2.4037875-3.63369656-4.7465845-4.25921124-6.5928901l-.12928575-.4019405-.11077653-.38453295-.09365606-.36606352-.07792431-.34653203c-.02350712-.11213741-.04462374-.22084258-.0635813-.32593848l-.05062703-.30428291-.03906147-.28156529-.02888466-.25778565-.02009658-.23294397-.01670507-.3005146c-.08079-2.19546 1.60101-4.32865 3.54461-5.16162.45607-.19546 1.00845-.15969 1.44513.15884zm-.9286 1.80831c-1.07141.56049-2.10961 1.8405-2.06249 3.12092l.02071774.32841318.02061875.2042781.0294589.22952335.03979923.25366678.05163975.2767084.06498043.2986482.07982129.31948618.09616234.33922236.11400356.3578567c.04114141.12226885.08550638.24745985.13334495.37538925l.15418653.39182.17652828.4071488c.62733073 1.3814868 1.65202695 3.0000917 3.32411825 4.6721787 1.6721 1.672087 3.2907161 2.6967826 4.6722064 3.3241157l.4071497.1765291.3918203.1541875c.1279294.0478389.2531203.0922043.375389.1333461l.3578559.1140049.339221.0961638.3194842.0798229.2986456.0649822.276705.0516417.2536627.0398012.2295185.0294611.2042724.0206211.3283993.0207227c1.2645.0465 2.5543-.9856 3.1118-2.0433-.71176-.8352-1.59568-1.520512-2.5709152-2.210816l-.7472848-.521084-.1907871.1990071-.405227.4431085-.21536.2265363c-.586237.5968148-1.2696592 1.1041481-2.0895259.7725481l-.2263824-.0948024-.275871-.1237309c-.0497438-.0230905-.1012806-.0474297-.1544759-.0730395l-.3379974-.1690791-.3713437-.2006146c-.7717292-.43346-1.7047953-1.0623906-2.5667496-1.9243335-.86193143-.8619429-1.49087347-1.7950041-1.92434729-2.5667312l-.2006216-.3713429-.16908582-.3379968-.19677906-.4303468-.09480623-.2263823c-.31113125-.76928125.11649531-1.41889063.66379766-1.98074707l.22383619-.22013808.55765819-.51237294.19917796-.19095191-.47258439-.69241721c-.70270181-1.01905891-1.39086561-1.94028552-2.24334561-2.63163279zm14.95982-.51894c.3905.39053.3905 1.02369 0 1.41422l-4.0659 4.06586c-.4881.48816-1.2796.48816-1.7677 0l-1.9446-1.94454c-.3905-.39053-.3905-1.02369 0-1.41422.3906-.39052 1.0237-.39052 1.4142 0l1.4143 1.41422 3.5355-3.53554c.3905-.39052 1.0237-.39052 1.4142 0z" fill="#09244b"/></g></svg>